<?xml version="1.0" encoding="UTF-8" standalone="no"?>
<!-- Created with Inkscape (http://www.inkscape.org/) -->

<svg
   xmlns:dc="http://purl.org/dc/elements/1.1/"
   xmlns:cc="http://creativecommons.org/ns#"
   xmlns:rdf="http://www.w3.org/1999/02/22-rdf-syntax-ns#"
   xmlns:svg="http://www.w3.org/2000/svg"
   xmlns="http://www.w3.org/2000/svg"
   xmlns:sodipodi="http://sodipodi.sourceforge.net/DTD/sodipodi-0.dtd"
   xmlns:inkscape="http://www.inkscape.org/namespaces/inkscape"
   width="671.95404mm"
   height="41.873817mm"
   viewBox="0 0 2380.9395 148.37179"
   id="svg2"
   version="1.1"
   inkscape:version="0.91 r13725"
   sodipodi:docname="divide2.svg">
  <defs
     id="defs4" />
  <sodipodi:namedview
     id="base"
     pagecolor="#ffffff"
     bordercolor="#666666"
     borderopacity="1.0"
     inkscape:pageopacity="0.0"
     inkscape:pageshadow="2"
     inkscape:zoom="0.24748737"
     inkscape:cx="1219.5974"
     inkscape:cy="-700.70791"
     inkscape:document-units="px"
     inkscape:current-layer="layer1"
     showgrid="false"
     inkscape:window-width="1161"
     inkscape:window-height="1155"
     inkscape:window-x="745"
     inkscape:window-y="10"
     inkscape:window-maximized="0"
     fit-margin-top="0"
     fit-margin-left="0"
     fit-margin-right="0"
     fit-margin-bottom="0" />
  <metadata
     id="metadata7">
    <rdf:RDF>
      <cc:Work
         rdf:about="">
        <dc:format>image/svg+xml</dc:format>
        <dc:type
           rdf:resource="http://purl.org/dc/dcmitype/StillImage" />
        <dc:title></dc:title>
      </cc:Work>
    </rdf:RDF>
  </metadata>
  <g
     inkscape:label="Layer 1"
     inkscape:groupmode="layer"
     id="layer1"
     transform="translate(674.63972,-329.41999)">
    <path
       style="fill:#000000"
       d="m 1706.2996,351.80041 -2.1055,0.23479 c 0,0 -3.2127,-0.0952 -3.2127,0.11598 0,1.09361 -5.669,0.52961 -7.9769,-0.79352 -1.3198,-0.75674 -5.0658,-1.59311 -7.1354,-1.59311 -0.9619,0 -2.7917,0.25657 -4.0662,0.57014 -1.4827,0.36488 -4.2797,0.58377 -7.7655,0.60784 l -5.4482,0.0377 -1.1401,-1.84389 c -0.6271,-1.01407 -1.8793,-2.20834 -2.7826,-2.65394 -1.155,-0.56973 -1.6424,-1.22938 -1.6424,-2.22304 0,-1.78432 -2.0686,-3.81806 -4.1523,-4.08224 -2.1351,-0.27064 -5.2503,0.8195 -5.8093,2.03294 -0.4808,1.0435 -1.4004,1.14919 -5.3319,0.61263 -3.2117,-0.4383 -6.9133,0.0212 -10.707,1.32876 -2.0722,0.71425 -3.2671,0.91289 -4.3097,0.71634 -2.2632,-0.42663 -9.8801,0.0696 -12.5428,0.81717 -2.6894,0.75507 -2.8656,1.00678 -3.4563,4.93752 -0.5494,3.65683 -1.4998,4.13837 -5.2581,2.66429 -1.5258,-0.59842 -3.2775,-1.59669 -3.8928,-2.21831 -1.4625,-1.4777 -4.1435,-1.729 -4.8173,-0.45157 -0.5502,1.04314 -5.8181,3.31564 -7.686,3.31564 -1.7049,0 -4.1558,1.53529 -4.7149,2.95348 -0.2486,0.63052 -1.4069,1.58169 -2.574,2.11377 -1.1671,0.53205 -2.1221,1.1651 -2.1221,1.40674 0,0.69518 -6.3999,2.62914 -7.9338,2.39747 -0.7349,-0.11101 -3.0543,-1.0584 -5.1541,-2.1053 -2.0999,-1.04693 -4.1191,-1.90349 -4.4872,-1.90349 -1.2084,0 -6.5126,2.49907 -6.5364,3.0796 -0.013,0.31208 -0.5143,0.87656 -1.1145,1.25439 -0.9065,0.5706 -1.3044,0.61437 -2.3491,0.25832 -0.6918,-0.23581 -1.671,-0.52305 -2.1759,-0.63837 -1.4349,-0.32767 -4.5554,0.8328 -4.5665,1.69825 -0.021,1.61986 -0.9649,2.34225 -4.1773,3.19655 -1.8128,0.48213 -3.7743,0.8766 -4.359,0.8766 -0.5845,0 -3.4173,0.37307 -6.295,0.82901 -7.2741,1.15256 -13.2545,1.06337 -16.5258,-0.24643 -2.3351,-0.93495 -4.3812,-0.99983 -6.1888,-0.19621 -0.3814,0.16957 -1.6953,0.31069 -2.9198,0.31361 -1.2244,0.003 -2.6888,0.14463 -3.254,0.31489 -0.6177,0.18607 -1.6875,0.16655 -2.6814,-0.0489 -0.9096,-0.19721 -2.7711,-0.2588 -4.1367,-0.13692 -1.8847,0.16825 -2.7334,0.49256 -3.5231,1.34616 -1.0063,1.08782 -1.1831,1.1245 -5.4199,1.1245 -3.6696,0 -4.8978,0.16894 -7.5751,1.042 -1.766,0.57588 -3.9273,1.70072 -4.8316,2.51462 -2.2855,2.05701 -3.0814,2.44502 -5.5434,2.70233 -1.5491,0.16189 -2.4482,0.55889 -3.1971,1.41163 -0.5729,0.65253 -1.4002,1.18642 -1.8382,1.18642 -1.0665,0 -6.5775,2.77884 -6.5775,3.31662 0,0.23368 -1.1095,0.67542 -2.4655,0.9816 -1.3561,0.30621 -3.0083,0.95082 -3.6715,1.4325 -1.1739,0.8525 -1.2664,0.86091 -3.4803,0.31615 -1.7456,-0.42955 -3.3329,-0.50569 -6.8281,-0.32757 -4.4765,0.22809 -4.581,0.21395 -6.1481,-0.83329 -0.8768,-0.58595 -2.2541,-1.06534 -3.0605,-1.06534 -1.6953,0 -4.8118,1.44053 -6.6196,3.05976 -1.5501,1.38847 -3.1517,1.71059 -4.8559,0.97671 -0.7193,-0.30972 -2.3092,-0.56314 -3.5332,-0.56314 -1.2241,0 -2.6344,-0.23445 -3.1342,-0.521 -0.4998,-0.28655 -1.51,-0.521 -2.2449,-0.521 -0.7349,0 -2.189,-0.18492 -3.2315,-0.41089 -1.4756,-0.31997 -2.4606,-0.31364 -4.4494,0.0285 -2.9103,0.50078 -4.3256,0.1679 -5.4919,-1.29173 -0.6166,-0.77174 -0.9241,-0.81596 -4.0985,-0.58943 -4.6896,0.33462 -10.19,1.70892 -10.7685,2.69052 -1.5614,2.64911 -4.5037,3.13548 -7.9225,1.30965 -1.0732,-0.5731 -2.2503,-1.042 -2.6159,-1.042 -1.8727,0 -3.0318,0.54931 -3.718,1.76185 -0.6485,1.1461 -1.1602,1.39433 -3.4885,1.69266 -3.0548,0.39141 -7.607,2.69565 -8.4304,4.26734 -0.5234,0.99903 -4.3073,2.20574 -5.6647,1.80655 -0.4214,-0.12393 -2.18,-0.037 -3.9081,0.19326 l -3.1419,0.4186 0.3767,2.87245 c 0.3411,2.60156 0.2297,2.94233 -1.1801,3.61321 -0.8563,0.40742 -2.4826,0.74075 -3.6142,0.74075 -3.4044,0 -9.547,1.0212 -10.33,1.71733 -0.4033,0.35855 -1.917,1.00004 -3.3638,1.42552 -2.4521,0.72114 -2.8929,0.74364 -6.4988,0.33202 -3.3838,-0.38627 -4.0814,-0.3705 -5.5705,0.1258 -0.9363,0.31205 -3.1144,0.56734 -4.8403,0.56734 -2.1418,0 -4.0311,0.28123 -5.9511,0.88584 -2.0378,0.64169 -3.336,0.82335 -4.7104,0.65923 -1.5631,-0.18669 -2.4352,0.0243 -4.9518,1.19817 -3.3184,1.54782 -4.3294,1.70002 -6.0028,0.90376 -0.6022,-0.28655 -1.5466,-0.521 -2.0988,-0.521 -1.451,0 -5.2576,2.0155 -7.0841,3.75075 -1.8141,1.7235 -3.1151,2.07177 -5.4847,1.46832 -1.3462,-0.34282 -2.266,-0.34223 -4.513,0.003 -1.5521,0.23841 -3.2193,0.4822 -3.7049,0.54177 -0.4855,0.0596 -1.7444,0.91741 -2.7975,1.90634 l -1.9148,1.79801 -4.7031,-0.22928 c -4.4359,-0.21625 -4.8886,-0.16856 -7.9692,0.83999 -1.7963,0.58811 -3.2661,1.22487 -3.2661,1.41507 0,0.1902 -1.7755,1.15958 -3.9456,2.15413 -2.17,0.99459 -4.1648,2.16264 -4.4327,2.59569 -0.268,0.43302 -1.6951,1.08209 -3.1714,1.44238 -4.8628,1.18663 -6.3014,2.28562 -9.5848,7.32196 -3.2144,4.93068 -4.0558,5.67289 -5.8987,5.20361 -1.0095,-0.2571 -1.8719,-0.25407 -2.9098,0.0101 -0.8112,0.20656 -1.8016,0.27954 -2.2008,0.16214 -1.1549,-0.33966 -2.8937,-2.58399 -2.8937,-3.73509 0,-0.77636 -0.7431,-1.3811 -2.8288,-2.30209 -1.6168,-0.71391 -3.0469,-1.72812 -3.3377,-2.36697 -0.4346,-0.95472 -0.9006,-1.1487 -3.1932,-1.32956 -4.2247,-0.33323 -4.3886,-0.39113 -5.2077,-1.83854 -0.4275,-0.75545 -1.536,-1.60666 -2.4725,-1.89863 -1.2275,-0.38269 -1.7257,-0.8857 -1.7992,-1.81648 -0.1103,-1.39622 -1.6702,-2.21596 -4.2518,-2.23426 -1.7327,-0.0122 -6.8369,2.44922 -6.8369,3.29706 0,0.29009 -0.8274,0.70683 -1.8387,0.92606 -1.6144,0.35004 -2.0963,0.28113 -3.9526,-0.56511 -1.9647,-0.8957 -2.2979,-0.93488 -4.7167,-0.55504 -3.34,0.52451 -4.091,0.27544 -4.091,-1.35661 0,-1.10421 -0.4218,-1.48069 -2.5061,-2.23718 -2.0119,-0.73016 -3.3099,-0.90956 -6.5811,-0.90956 -6.3731,0 -9.7074,-0.63659 -12.541,-2.39445 -1.3531,-0.83936 -2.4601,-1.67488 -2.4601,-1.8567 0,-0.18183 -0.6794,-0.78456 -1.5096,-1.33939 -1.253,-0.83728 -2.0286,-1.00914 -4.5622,-1.01095 -1.6789,0 -4.0164,-0.24129 -5.1944,-0.53357 -2.8268,-0.70144 -3.776,-0.47422 -4.3759,1.04738 l -0.4974,1.26183 -3.2125,-0.22924 c -2.6294,-0.18763 -3.5675,-0.0964 -5.1678,0.50259 -2.433,0.91067 -3.3687,0.91755 -5.0431,0.0372 -1.5892,-0.83558 -3.4597,-0.88372 -5.814,-0.1497 -1.5989,0.4985 -1.9111,0.49415 -3.6589,-0.0508 -1.0511,-0.32767 -2.371,-1.11963 -2.9332,-1.75987 -1.1829,-1.34723 -4.4825,-2.27916 -5.4452,-1.53795 -0.3487,0.26845 -0.1046,0.86145 0.5928,1.43959 1.1192,0.9279 1.1042,1.01939 -0.2672,1.62948 -1.4112,0.6278 -3.5141,2.40754 -4.3033,3.64207 -0.5857,0.91609 -1.8243,0.74037 -4.5793,-0.64965 -2.2732,-1.1469 -2.7443,-1.23832 -5.3569,-1.03954 -2.6398,0.20086 -2.9527,0.13685 -3.9884,-0.8162 -1.5896,-1.46272 -3.0666,-1.72704 -9.5593,-1.71093 -4.3913,0.0108 -5.9177,-0.11305 -6.5632,-0.53315 -0.4627,-0.30104 -1.1647,-0.54737 -1.56,-0.54737 -0.3953,0 -1.2862,-0.29832 -1.9796,-0.66292 -0.6935,-0.36463 -2.1773,-0.84357 -3.2974,-1.06433 -1.1201,-0.22077 -3.1283,-1.09469 -4.4626,-1.94208 -1.8401,-1.16857 -2.9103,-1.54067 -4.431,-1.54067 -1.3643,0 -2.1532,-0.22212 -2.4686,-0.69505 -0.5594,-0.83863 -2.7762,-1.45994 -4.2494,-1.19097 -1.3612,0.24855 -4.1447,3.40418 -4.1447,4.6988 0,1.78032 -3.8096,2.06934 -6.5518,0.4971 -0.869,-0.49821 -1.0733,-0.49863 -2.2205,-0.005 -1.1564,0.49793 -1.4504,0.46924 -3.468,-0.33859 -1.2125,-0.48546 -2.5807,-0.88264 -3.0405,-0.88264 -0.4598,0 -2.1054,0.58613 -3.6569,1.3025 -6.5163,3.0086 -8.9816,3.94182 -10.1343,3.8362 -0.6712,-0.0615 -2.0146,-0.69582 -2.9853,-1.40959 -0.9708,-0.71377 -2.2848,-1.29611 -2.9201,-1.29409 -1.6233,0.005 -5.69309,2.08855 -6.28975,3.21974 -0.58812,1.11498 -2.72774,1.2569 -5.4203,0.35953 -1.66005,-0.5533 -1.79779,-0.54993 -2.53475,0.0621 -0.42862,0.35595 -2.33955,1.38124 -4.24654,2.27847 -1.90699,0.8972 -3.46726,1.82528 -3.46726,2.06237 0,0.28214 -0.68797,0.36852 -1.99122,0.24997 -1.2996,-0.11823 -3.04849,0.0998 -5.03511,0.6275 l -3.04381,0.80859 -1.66173,-0.84163 c -2.68059,-1.35776 -4.86138,-1.11636 -6.51683,0.72135 -1.2677,1.40725 -2.91979,2.09883 -2.91979,1.2223 0,-0.18742 -0.82886,-0.43973 -1.84188,-0.5607 -1.01309,-0.12098 -2.24488,-0.49231 -2.7373,-0.82513 -0.4925,-0.33285 -1.58465,-0.70873 -2.42701,-0.83534 -0.84243,-0.12656 -1.92151,-0.63732 -2.39802,-1.13494 -0.80317,-0.83878 -1.11748,-0.88977 -4.30794,-0.69887 -2.43525,0.14567 -3.85106,0.0584 -4.84167,-0.29833 -1.05923,-0.38151 -1.64304,-0.40822 -2.39868,-0.10982 -1.02252,0.40377 -3.66069,-0.50409 -6.98392,-2.40334 -1.68392,-0.96236 -2.7241,-0.98 -5.11044,-0.0868 -1.02076,0.38207 -2.21474,0.69467 -2.65322,0.69467 -0.43855,0 -1.45428,0.3126 -2.25722,0.69467 -0.80294,0.38206 -2.27262,0.69466 -3.26601,0.69466 -1.81873,0 -4.03347,1.40966 -4.03347,2.56725 0,0.75347 -1.21712,0.99237 -2.88789,0.56688 -1.05646,-0.26904 -1.83838,-0.25834 -2.83819,0.0388 -2.0486,0.60873 -3.76324,0.1391 -3.76324,-1.03075 0,-0.77421 -0.64491,-1.21831 -2.80191,-1.92961 -2.63081,-0.8675 -3.02907,-0.90074 -6.52187,-0.54431 -2.04597,0.20878 -4.11012,0.60328 -4.58692,0.87671 -0.47687,0.27338 -1.598,0.49706 -2.49138,0.49706 -2.02612,0 -9.87606,3.82182 -9.87606,4.80828 0,0.45476 -0.93798,0.90995 -2.7373,1.32827 -1.50552,0.35005 -3.17265,1.07309 -3.70478,1.60673 -0.72097,0.72305 -1.32333,0.91651 -2.36401,0.75934 -0.95638,-0.14445 -1.97444,0.0858 -3.22973,0.73027 -1.00828,0.51767 -1.83319,1.07469 -1.83319,1.23783 0,0.49596 -2.68081,0.33115 -3.64974,-0.22438 -1.25756,-0.72103 -2.9198,-0.65281 -2.9198,0.11983 0,0.83958 -2.25663,1.79051 -4.24895,1.79051 -1.10113,0 -1.9675,0.38748 -2.86227,1.28013 -0.97835,0.97601 -2.11612,1.44195 -4.78941,1.96129 -4.08092,0.79282 -4.87788,0.59189 -5.55411,-1.40028 l -0.44804,-1.32014 -4.14158,-0.10351 c -3.63229,-0.0908 -4.16961,-0.19756 -4.37012,-0.86833 -0.15563,-0.52038 -1.02784,-0.88772 -2.72877,-1.14933 -2.66935,-0.41055 -4.04435,-1.51114 -3.29375,-2.63643 0.3133,-0.46974 -0.28905,-0.99067 -2.0694,-1.78964 -1.38128,-0.61989 -2.89855,-1.4713 -3.37185,-1.89206 -0.62461,-0.55536 -1.53238,-0.76504 -3.31192,-0.76504 -2.34547,0 -2.53679,0.10146 -4.42078,2.3445 -1.0831,1.28948 -2.26788,2.51692 -2.63285,2.72768 -0.92653,0.53493 -7.9279,0.16943 -9.98445,-0.52128 -0.91142,-0.3061 -2.34182,-1.29225 -3.17864,-2.19146 -1.19426,-1.28326 -2.061,-1.71962 -4.03004,-2.02881 -2.82993,-0.44442 -4.97606,-0.20858 -4.41648,0.48529 0.45257,0.56115 -0.1127,0.96958 -2.04655,1.47888 -0.80295,0.21149 -1.62896,0.83669 -1.8356,1.38933 -0.32819,0.87778 -0.64791,0.98952 -2.52745,0.88351 -1.18339,-0.0668 -2.49248,-0.34084 -2.90899,-0.60912 -0.41658,-0.26824 -1.81896,-0.63173 -3.11651,-0.80772 -1.88071,-0.25515 -2.68928,-0.1928 -3.98756,0.30746 -1.31749,0.50763 -1.96444,0.55466 -3.38696,0.24622 -1.53165,-0.33205 -1.96349,-0.25886 -3.34813,0.56737 -1.32595,0.7913 -1.96779,0.91262 -3.87033,0.73159 -1.53428,-0.14602 -2.82994,-0.034 -3.95851,0.34209 -2.28065,0.76011 -2.81271,0.7055 -2.81271,-0.2887 0,-0.4663 -0.33081,-0.9451 -0.73513,-1.06402 -1.07171,-0.31517 -1.75816,0.79838 -0.82272,1.33466 0.60578,0.34737 0.17335,0.73937 -1.81495,1.64542 l -2.61022,1.18945 -1.11222,-0.7815 c -1.32077,-0.92801 -2.19211,-0.97615 -3.95179,-0.21837 -2.17992,0.9387 -3.40061,0.38457 -3.35996,-1.52532 0.0438,-2.0699 -0.29314,-2.36447 -3.00169,-2.62223 -1.27748,-0.1216 -2.26123,-0.47567 -2.49299,-0.89733 -0.31936,-0.58116 -0.80352,-0.664 -2.92374,-0.50027 -2.53503,0.19573 -2.54503,0.19121 -4.27428,-1.9335 -1.52121,-1.86914 -2.0413,-2.17021 -4.25121,-2.46089 -3.09324,-0.40687 -4.34925,0.0468 -7.53103,2.72038 -1.21332,1.01953 -2.5692,1.90516 -3.01308,1.96814 -5.74899,0.81546 -7.64621,1.36151 -9.14785,2.63285 -0.88375,0.74823 -2.03422,1.36037 -2.55658,1.36037 -0.52242,0 -1.82509,0.3276 -2.89482,0.72801 l -1.94502,0.72801 -2.48438,-0.90168 c -3.55814,-1.29135 -5.14081,-1.17694 -6.67983,0.4829 -1.17734,1.26982 -1.38639,1.3404 -2.52175,0.85145 -0.81835,-0.35237 -1.88896,-0.45535 -3.15819,-0.30377 -1.10187,0.1316 -2.35504,0.0576 -2.9406,-0.17367 -0.8158,-0.32215 -1.76538,-0.054 -4.73517,1.33696 -2.04313,0.95697 -3.71479,1.98049 -3.71479,2.27451 0,0.29405 -0.57483,0.53972 -1.27741,0.54594 -0.70256,0.006 -3.08402,0.30701 -5.29212,0.66834 -2.93037,0.47953 -4.07771,0.85169 -4.24801,1.37797 -0.17358,0.53663 -0.76922,0.72103 -2.32919,0.72103 -1.1528,0 -2.29904,-0.1563 -2.54715,-0.34733 -0.24811,-0.19103 -1.08872,-0.34733 -1.86793,-0.34733 -0.7793,0 -1.41683,0.1563 -1.41683,0.34733 0,0.19103 -1.30275,0.34733 -2.89505,0.34733 -2.60343,0 -4.61065,0.30052 -10.1595,1.52111 -1.48777,0.32726 -1.89786,0.26992 -2.82629,-0.39547 -1.3558,-0.97163 -4.23763,-1.0172 -5.28767,-0.0836 -1.29682,1.15301 -2.02758,0.81002 -3.77522,-1.77199 -2.22458,-3.28657 -4.03844,-4.21284 -7.70379,-3.93397 -2.29065,0.17429 -3.14206,0.0573 -4.95059,-0.68004 -1.2012,-0.48981 -2.70445,-1.10303 -3.34046,-1.36269 -0.99331,-0.40559 -1.25069,-0.37408 -1.82487,0.22337 -0.36768,0.38251 -1.26324,0.86458 -1.99013,1.07124 -1.07872,0.3067 -1.64297,0.19993 -3.06972,-0.58077 -0.96149,-0.52611 -1.94495,-1.54206 -2.18554,-2.25767 -0.24051,-0.71565 -0.74791,-1.57255 -1.1274,-1.90426 -0.37958,-0.33174 -0.6901,-1.20104 -0.6901,-1.93187 0,-1.06958 -0.42132,-1.47693 -2.16028,-2.08869 -2.80329,-0.98622 -3.968,-0.95853 -5.46672,0.12991 -1.54611,1.12279 -2.56205,0.96614 -3.61873,-0.558 -0.73082,-1.05405 -1.11601,-1.19416 -3.163,-1.15029 -1.69604,0.0363 -2.44927,-0.12758 -2.76557,-0.60173 -0.65045,-0.97517 -5.15736,-1.90814 -6.55376,-1.35668 -0.59958,0.23678 -1.09018,0.63385 -1.09018,0.88233 0,0.24852 -0.82119,0.9162 -1.82487,1.48378 -1.00367,0.56757 -1.82486,1.27558 -1.82486,1.57331 0,0.90727 -1.63385,2.31071 -2.69008,2.31071 -0.54768,0 -1.28128,-0.35168 -1.63027,-0.7815 -0.34891,-0.42983 -1.45508,-1.14461 -2.4581,-1.58839 -1.56924,-0.69432 -1.95947,-0.73771 -2.79716,-0.31101 -0.82733,0.42139 -1.32654,0.4257 -3.32433,0.0285 -1.66473,-0.33098 -2.49467,-0.35672 -2.84344,-0.0882 -0.27088,0.20858 -1.39026,0.29378 -2.48738,0.18937 -1.10185,-0.10486 -2.4005,-0.004 -2.90088,0.22552 -0.70812,0.32462 -1.14938,0.24466 -2.02035,-0.36616 -2.18328,-1.53111 -4.38531,-1.05811 -11.72129,2.51775 -4.39612,2.14284 -7.31963,3.30009 -8.33688,3.30009 -0.86171,0 -2.17299,0.26109 -2.91403,0.58018 -0.96259,0.41451 -2.457,0.55886 -5.233,0.50541 -2.71519,-0.0523 -4.15924,0.0821 -4.79386,0.44591 -1.24164,0.71189 -3.70471,3.04472 -3.70471,3.50879 0,0.70922 -1.61625,1.16583 -3.195,0.90262 -2.83613,-0.47279 -5.49022,0.0505 -6.85231,1.35109 -0.80776,0.77133 -1.71909,1.18052 -2.49329,1.11953 -1.60726,-0.12664 -6.43376,2.25798 -6.45368,3.18859 -0.01,0.44854 -1.13091,1.10368 -2.91979,1.70593 -1.59727,0.5377 -2.90418,1.17777 -2.90418,1.42233 0,0.68511 -2.46737,1.59085 -5.3741,1.97275 -1.85991,0.24435 -3.2706,0.79025 -4.83101,1.86942 -1.21223,0.83835 -2.204,1.78428 -2.204,2.10206 0,0.31777 -0.65696,0.65951 -1.4599,0.75944 -0.80295,0.0999 -1.4599,0.39787 -1.4599,0.66212 0,0.67717 -0.57512,0.60426 -3.04979,-0.38658 -1.63483,-0.65455 -2.48317,-0.78622 -3.46087,-0.53725 -0.85411,0.2175 -1.56726,0.20034 -2.09428,-0.0504 -0.579,-0.2755 -1.52407,-0.21659 -3.42953,0.21365 -2.99643,0.67657 -2.63358,0.71057 -7.13852,-0.66921 -1.87115,-0.5731 -3.41412,-1.30354 -3.42879,-1.62319 -0.0146,-0.31965 -0.84783,-1.04555 -1.85151,-1.61312 -1.00368,-0.56758 -1.82487,-1.25871 -1.82487,-1.53584 0,-0.61878 -2.48964,-1.74244 -3.15703,-1.42483 -0.26607,0.12656 -1.11456,-0.0415 -1.88553,-0.37346 -0.77097,-0.33201 -2.0048,-0.56056 -2.74183,-0.50787 -1.54027,0.11011 -6.08462,-0.94711 -6.08462,-1.41556 0,-0.17252 -1.13311,-0.88535 -2.51797,-1.58408 -2.41393,-1.21789 -2.60248,-1.25009 -4.56216,-0.77969 -7.36512,1.76785 -6.6105,1.69714 -8.15324,0.76389 -1.65055,-0.99848 -3.28871,-1.08327 -4.62524,-0.23942 -0.52951,0.33431 -1.72924,0.81387 -2.66614,1.06572 -1.45332,0.39068 -1.89582,0.37502 -3.01418,-0.10656 -1.85114,-0.79713 -7.30875,-1.02894 -7.30875,-0.31041 0,0.99358 -1.80932,0.27526 -3.64974,-1.44901 -1.61456,-1.5127 -2.1613,-1.73694 -4.74466,-1.94611 -2.17634,-0.1762 -3.13688,-0.10392 -3.77237,0.28384 -0.65842,0.40173 -1.188,0.43487 -2.32438,0.14547 -1.95589,-0.49808 -2.01042,-0.49242 -3.73032,0.38599 -1.44785,0.73951 -1.58997,0.74552 -5.07833,0.21472 -2.43386,-0.37036 -3.82777,-0.43236 -4.33151,-0.19266 -0.50381,0.23973 -1.12704,0.17061 -1.93677,-0.21469 -1.85801,-0.88407 -4.44122,-0.70099 -6.14156,0.43524 -0.82586,0.55188 -2.30087,1.09886 -3.27776,1.21553 -1.75144,0.20916 -3.28141,1.64014 -3.54697,3.31742 -0.11172,0.7062 -1.26252,1.04189 -1.26252,0.36834 0,-0.19103 -0.37934,-0.34733 -0.84294,-0.34733 -0.46366,0 -2.09291,-0.6252 -3.62054,-1.38933 -1.52764,-0.76414 -3.24776,-1.38934 -3.82252,-1.38934 -0.57477,0 -1.2488,-0.38623 -1.49778,-0.85829 -0.24899,-0.4721 -1.1058,-1.02464 -1.904,-1.2279 -0.79819,-0.20326 -1.45128,-0.58932 -1.45128,-0.85787 0,-0.76337 -1.44004,-0.99904 -3.26491,-0.53434 -1.37442,0.35001 -1.99145,0.32267 -3.52784,-0.15634 -1.77896,-0.55465 -1.89874,-0.54795 -2.68373,0.14998 -0.67791,0.60273 -1.25471,0.69189 -3.29703,0.50957 -2.3343,-0.2084 -2.51183,-0.15463 -3.11287,0.94294 -0.4457,0.81395 -1.06134,1.16392 -2.04728,1.16392 -0.7755,0 -1.88326,0.14491 -2.46182,0.32201 -0.69324,0.21219 -1.14945,0.1826 -1.33822,-0.0868 -0.4119,-0.58797 -1.62465,-0.50426 -1.62465,0.11215 0,0.66435 -3.19571,0.6945 -4.51005,0.0426 -0.53053,-0.26314 -1.45727,-0.83999 -2.05947,-1.28187 -1.36347,-1.00046 -5.22176,-2.75501 -6.05843,-2.75501 -1.11281,0 -4.8908,2.01401 -4.8908,2.60722 0,0.31719 -0.41059,0.50499 -0.91244,0.41739 -0.50183,-0.0876 -1.85232,0.25106 -3.00111,0.75257 l -2.08867,0.91182 0.53908,-1.20427 c 0.29657,-0.66234 0.87768,-1.46221 1.29149,-1.77748 0.93367,-0.71141 0.1147,-1.84049 -1.16543,-1.60677 -0.54535,0.0996 -1.34055,-0.25248 -1.87992,-0.83228 -1.00834,-1.08396 -2.80359,-1.28673 -5.16883,-0.58387 -1.81348,0.53893 -2.99652,0.016 -1.29952,-0.57452 1.21827,-0.42389 1.82377,-1.93048 0.77585,-1.93048 -0.27526,0 -1.26069,0.33983 -2.18984,0.75521 l -1.68947,0.7552 0,-0.7552 c 0,-0.57786 -0.43694,-0.75521 -1.86057,-0.75521 -1.4839,0 -2.14232,-0.29881 -3.25234,-1.47617 -1.03135,-1.09386 -1.82561,-1.48325 -3.06659,-1.5036 -6.0493,-0.099 -5.88499,-0.0604 -5.41782,-1.27507 0.59454,-1.54594 -0.46681,-2.31539 -2.4054,-1.74378 -2.17517,0.64138 -2.45767,-0.0377 -0.39863,-0.95812 1.22238,-0.54639 1.80239,-1.18094 1.80239,-1.97171 0,-1.25089 -1.6569,-1.88408 -3.11484,-1.19035 -0.45475,0.21639 -1.73815,0.39346 -2.85198,0.39346 -1.51187,0 -2.31211,-0.26411 -3.15753,-1.042 -0.62279,-0.5731 -1.43552,-1.042 -1.80604,-1.042 -0.37044,0 -1.55967,-0.39075 -2.64263,-0.86833 -3.04921,-1.34467 -5.55052,-0.98633 -5.68899,0.81502 -0.0929,1.20896 -1.85714,1.59783 -5.78244,1.27454 -3.58164,-0.29499 -7.65299,0.57636 -10.39409,2.22463 -1.33479,0.80262 -2.55839,1.64515 -2.71907,1.87223 -0.22051,0.3116 -0.57103,0.30343 -1.4285,-0.0333 -0.93667,-0.36776 -1.34231,-0.34813 -2.3086,0.11163 -0.6447,0.3068 -1.17223,0.68553 -1.17223,0.84166 0,0.15613 -1.14565,0.38617 -2.54592,0.51114 -1.40032,0.125 -2.86723,0.5129 -3.25987,0.86201 -0.88448,0.7864 -2.27598,3.32596 -2.5857,4.71905 -0.59783,2.68919 -1.85924,6.5564 -2.18991,6.71374 -0.20227,0.0963 -0.37943,-0.28085 -0.39366,-0.83801 -0.0335,-1.30861 -1.1601,-2.20491 -4.51422,-3.59129 -3.17528,-1.3124 -5.67922,-1.23223 -5.67922,0.18183 0,1.30518 -3.29921,4.11924 -5.35088,4.56403 -1.00295,0.21743 -3.47135,0.3241 -5.48534,0.23702 -3.11214,-0.13459 -3.94325,-0.0344 -5.5371,0.66866 -1.03149,0.45486 -1.87538,0.96687 -1.87538,1.13779 0,0.50839 -2.79476,1.2025 -3.29404,0.81811 -0.62937,-0.48457 -5.00226,-0.42163 -6.07192,0.0874 -0.71148,0.33855 -1.35757,0.19392 -3.10279,-0.69466 -2.16351,-1.10154 -4.53999,-1.44856 -5.39776,-0.78817 -0.26585,0.20468 -1.0963,0.2142 -2.14436,0.0247 -1.1731,-0.21222 -2.14926,-0.16321 -3.10717,0.15606 -2.2124,0.73735 -4.56239,-0.30795 -4.89547,-2.17758 -0.44133,-2.47659 -4.95526,-3.95411 -6.00426,-1.96531 -0.39111,0.74148 -0.83106,0.86982 -2.67935,0.7815 -1.9548,-0.0934 -2.32978,-0.29979 -3.23199,-1.77873 -1.02558,-1.6812 -2.51993,-2.04052 -3.03389,-0.72951 -0.41892,1.06857 -1.61092,1.54355 -3.68521,1.46832 -1.06434,-0.0386 -2.29774,0.0365 -2.74089,0.16679 -0.44314,0.13035 -1.63523,-0.0735 -2.64905,-0.45296 -1.01383,-0.37946 -2.34285,-0.68994 -2.95344,-0.68994 -1.67181,0 -3.40427,0.98479 -3.40427,1.93513 0,1.09705 -0.69068,1.04603 -2.88555,-0.21316 -1.60246,-0.91935 -2.22977,-1.0273 -5.96995,-1.0273 -2.74162,0 -4.55591,0.17922 -5.27417,0.521 -0.60221,0.28655 -1.95451,0.521 -3.00513,0.521 -1.83005,0 -5.49359,1.35223 -5.49359,2.02769 0,0.81968 -3.27046,0.67793 -5.780175,-0.25053 -4.7378,-1.75268 -6.40982,-1.73163 -8.69258,0.10938 -1.63626,1.31962 -4.01588,1.42955 -5.97857,0.2762 -1.47114,-0.86448 -4.72006,-1.3445 -5.42527,-0.80154 -0.26825,0.20649 -0.75213,0.37546 -1.07528,0.37546 -1.09515,0 -4.4359,-2.63713 -4.4359,-3.50154 0,-0.47258 -0.44373,-1.16752 -0.98601,-1.54434 -0.54228,-0.37683 -1.18858,-1.07587 -1.43617,-1.55345 -0.27519,-0.5308 -1.5234,-1.13891 -3.2112,-1.56439 -2.41145,-0.60791 -2.73204,-0.83374 -2.53232,-1.78356 0.21978,-1.0453 0.0834,-1.10414 -3.50997,-1.5143 -2.05626,-0.23473 -4.69808,-0.81096 -5.87088,-1.28048 -1.1727,-0.46956 -2.497,-0.74642 -2.943,-0.61531 -0.4459,0.13116 -2.0585,-0.34132 -3.5836,-1.04995 -2.4026,-1.11633 -2.9787,-1.23599 -4.3138,-0.89598 -0.8475,0.21583 -1.5409,0.55973 -1.5409,0.7642 0,0.20451 -0.7468,0.79411 -1.6596,1.31025 -1.4347,0.8114 -1.9721,0.8999 -3.9683,0.65378 -2.8647,-0.35323 -3.7747,-1.4464 -1.9866,-2.38656 1.063,-0.55893 1.1333,-0.82075 0.4203,-1.5654 -1.0222,-1.06753 -2.3113,-0.95516 -3.6124,0.31483 -1.0982,1.07204 -2.7718,1.21768 -3.3874,0.29481 -0.4342,-0.65097 -6.4702,-2.14395 -8.6678,-2.14395 -0.6745,0 -1.2265,0.23445 -1.2265,0.521 0,0.28655 -0.6167,0.521 -1.3705,0.521 -1.8482,0 -2.9938,0.72774 -3.5049,2.22669 -0.3423,1.00362 -0.7471,1.24665 -2.0765,1.24665 -0.9081,0 -1.8403,0.23445 -2.0714,0.521 -0.6264,0.7767 -1.5848,0.63239 -2.5594,-0.3853 -0.7223,-0.75434 -1.2431,-0.88011 -3.1055,-0.75003 -1.8101,0.12639 -2.3867,0 -3.0163,-0.6567 -1.036,-1.08195 -2.1302,-1.02485 -4.0512,0.21152 -2.0626,1.32748 -5.4834,2.03795 -9.8145,2.0384 -3.1327,3.1e-4 -3.4672,-0.0768 -3.4672,-0.79946 0,-0.88073 -1.2263,-1.22143 -4.3964,-1.22143 -2.1604,0 -3.6167,0.60516 -2.392,0.994 0.7123,0.22614 3.2966,2.54265 2.9593,2.65265 -0.1021,0.0334 -2.0935,0.57164 -4.4253,1.19632 -2.3318,0.62468 -4.628,1.43171 -5.1027,1.79339 -0.4747,0.36171 -1.2241,0.65764 -1.6653,0.65764 -0.4412,0 -1.1764,0.39075 -1.6336,0.86833 -0.4573,0.47759 -1.1944,0.86834 -1.6379,0.86834 -0.4436,0 -1.9369,0.50797 -3.3184,1.12883 -1.3815,0.62086 -3.3032,1.46443 -4.2705,1.87463 -0.9672,0.41017 -2.133,1.40746 -2.5907,2.21616 l -0.8321,1.4704 -3.559,-0.20055 c -3.9,-0.21979 -3.792,-0.27224 -4.6971,2.2807 -0.2863,0.80748 -0.8654,1.3025 -1.5236,1.3025 -0.5841,0 -1.0619,-0.16339 -1.0619,-0.36307 0,-0.22511 -0.9472,-0.27853 -2.4924,-0.1406 -2.1547,0.19235 -2.6651,0.0971 -3.7664,-0.70266 -0.9555,-0.6939 -1.6833,-0.87621 -2.912,-0.7295 -1.3399,0.16002 -1.7829,-0.003 -2.433,-0.88921 -0.6512,-0.88889 -0.984,-1.01011 -1.8425,-0.67108 -0.8178,0.32295 -1.4997,0.30207 -3.1076,-0.0952 -2.33,-0.57574 -5.3445,-2.36238 -5.3445,-3.16761 0,-0.29429 -0.2677,-0.53506 -0.5948,-0.53506 -0.8536,0 -3.0532,-2.31411 -3.065,-3.22461 -0.029,-2.24569 -2.99,-3.38185 -5.7339,-2.20022 -0.7181,0.30919 -1.9786,0.56216 -2.8013,0.56216 -1.5184,0 -6.0189,-0.75511 -8.5239,-1.43011 -1.733795,-0.4672 -2.612595,0.10031 -2.628295,1.69724 -0.011,1.02109 -0.1859,1.11456 -1.746,0.92825 -1.3599,-0.16241 -2.07,0.0167 -3.2848,0.82849 -0.8525,0.56963 -1.5499,1.20143 -1.5499,1.40403 0,0.69244 -2.9004,1.18014 -4.1302,0.69449 -0.9325,-0.36827 -1.3428,-0.30051 -2.4829,0.41007 -0.7512,0.46817 -1.7455,1.28103 -2.2096,1.80637 -0.8688,0.98351 -2.1265,1.29101 -2.1265,0.51989 0,-0.23942 -0.9679,-0.86996 -2.1508,-1.40125 -2.1357,-0.95916 -2.1565,-0.96082 -2.9707,-0.23695 -0.6548,0.58217 -1.0294,0.64625 -1.86,0.31823 -0.5721,-0.22591 -1.6868,-0.33028 -2.4771,-0.23195 -0.7903,0.0984 -1.8326,-0.048 -2.3162,-0.32528 -1.9065,-1.09309 -3.4956,-1.22799 -5.6935,-0.48331 -2.6815,0.90859 -2.8269,0.89845 -3.1043,-0.2166 -0.2833,-1.13866 -2.0558,-1.5324 -2.0558,-0.45664 0,0.95392 -2.2705,2.81945 -3.2437,2.66509 -0.4019,-0.0637 -0.9063,-0.4169 -1.1209,-0.7848 -0.2145,-0.36793 -1.1111,-1.31215 -1.9922,-2.09831 -1.2051,-1.07527 -2.1714,-1.48356 -3.8999,-1.6481 -1.264,-0.12028 -3.5443,-0.68838 -5.0676,-1.26242 -1.5232,-0.57407 -3.5161,-1.04377 -4.4286,-1.04377 -0.9124,0 -1.4531,-0.098 -1.2014,-0.21771 0.6516,-0.31009 -1.534,-2.20473 -2.6053,-2.25839 -4.039,-0.20243 -5.5802,-0.17186 -7.6193,0.15105 -1.9003,0.30093 -2.5935,0.26616 -3.6497,-0.18304 -0.7171,-0.30503 -2.125,-0.6079 -3.1287,-0.67306 -1.3036,-0.0847 -1.898,-0.36658 -2.081,-0.98685 -0.1409,-0.47758 -0.6336,-0.98316 -1.0949,-1.12352 -1.6881,-0.51353 -6.1222,-0.26369 -8.0364,0.45279 -1.1684,0.43729 -2.4626,0.63662 -3.3063,0.50922 -1.1324,-0.17103 -1.5674,0.0631 -2.3757,1.27857 -0.828,1.24516 -1.332,1.50656 -3.0888,1.60208 -2.0274,0.11021 -2.0832,0.0731 -1.6277,-1.08223 0.5185,-1.31507 -0.014,-2.33158 -1.2207,-2.33158 -0.4273,0 -1.3654,-0.25341 -2.0846,-0.56313 -1.6395,-0.70602 -3.3636,-0.41246 -4.2748,0.72791 -0.5559,0.69581 -1.2038,0.87722 -3.1328,0.87722 -1.9812,0 -2.5737,0.17708 -3.1963,0.95517 -0.7704,0.96288 -0.8823,0.92363 -1.9794,-0.69467 -0.5554,-0.81915 -3.0558,-0.77028 -4.3138,0.0843 -0.5604,0.38071 -2.0198,0.78744 -3.243,0.90383 -1.3696,0.13035 -2.5305,0.53163 -3.0216,1.0445 -0.9712,1.01432 -2.9901,1.07399 -4.6741,0.13817 -1.4766,-0.82058 -4.7776,-0.92061 -5.3884,-0.16332 -0.2552,0.31649 -0.9422,0.45379 -1.6988,0.33949 -1.8237,-0.2754 -2.8369,0.483 -4.0045,2.99738 -1.4738,3.17383 -2.5337,4.76 -3.3387,4.99674 -0.3866,0.11368 -0.7029,-0.19663 -0.7029,-0.68956 0,-0.61898 -0.5646,-1.0187 -1.8249,-1.29194 -1.0037,-0.21757 -1.8249,-0.52684 -1.8249,-0.6872 0,-0.16037 -0.6569,-0.29159 -1.4598,-0.29159 -0.803,0 -2.1612,-0.33368 -3.0182,-0.74149 -1.5093,-0.71814 -1.584,-0.72089 -2.3724,-0.0876 -0.4477,0.35966 -1.3067,1.40823 -1.9089,2.33015 -0.6022,0.92193 -1.4217,1.70378 -1.8212,1.73743 -0.9912,0.0835 -1.1473,-2.93423 -0.2906,-5.61923 0.5192,-1.62722 0.4753,-2.33831 -0.167,-2.70656 -0.6598,-0.37831 -0.6661,-0.59703 -0.026,-0.90157 2.1322,-1.01456 0.1932,-3.38914 -2.7675,-3.38914 -0.7251,0 -1.7323,-0.23734 -2.2383,-0.52743 -0.5059,-0.29006 -2.034,-0.77896 -3.3958,-1.08646 -2.326,-0.5252 -2.5677,-0.51961 -3.9889,0.0924 -0.8321,0.35831 -1.944,1.04815 -2.4709,1.53292 -0.5268,0.48477 -1.7856,1.09222 -2.7973,1.34988 -1.2809,0.32618 -1.9815,0.86802 -2.3067,1.78401 -0.2569,0.72356 -0.8909,1.39294 -1.4088,1.48752 -0.5269,0.0962 -1.101,0.96104 -1.3035,1.96348 -0.4606,2.28094 -1.5669,2.82976 -5.1467,2.55335 -2.0665,-0.1596 -2.844,-0.40996 -3.1655,-1.01939 -0.7041,-1.33508 -1.9883,-1.55143 -9.6555,-1.62681 -8.226,-0.0808 -8.1164,-0.0414 -8.1361,-2.93111 -0.01,-1.08767 -0.3721,-1.55616 -1.4189,-1.82273 -0.7749,-0.19736 -1.514,-0.70902 -1.6424,-1.13707 -0.1959,-0.65306 -1.1083,-0.88501 -5.6717,-1.44192 -3.8985,-0.47581 -5.5174,-0.5507 -5.7179,-0.26453 -0.1539,0.21955 -1.5514,0.39919 -3.1055,0.39919 -2.6534,0 -2.8553,0.0745 -3.3067,1.21949 -0.5124,1.29923 -1.382,1.79568 -2.1329,1.21751 -0.8817,-0.67887 -3.3173,-0.36682 -4.0221,0.51534 -0.5248,0.6568 -1.2211,0.86833 -2.8586,0.86833 -1.1907,0 -2.3678,-0.1563 -2.6159,-0.34733 -0.7615,-0.5863 -2.5549,-0.38499 -2.5549,0.28679 0,1.35495 -4.7417,2.57902 -9.8025,2.53057 -1.176,-0.0115 -2.4899,0.10972 -2.9198,0.26887 -0.43,0.15915 -1.8805,0.38856 -3.2235,0.50981 -2.0407,0.18426 -2.5043,0.1067 -2.8225,-0.47213 -0.2093,-0.38092 -0.6708,-0.69258 -1.0253,-0.69258 -0.3547,0 -0.6449,-0.23445 -0.6449,-0.521 0,-0.32417 -0.6894,-0.521 -1.8249,-0.521 -1.0036,0 -1.83,-0.19538 -1.836,-0.43417 -0.012,-0.23879 -0.3096,-0.65858 -0.6744,-0.93283 -0.5508,-0.41416 -0.8589,-0.42135 -1.8181,-0.0425 -0.6354,0.25087 -2.2174,0.55948 -3.5155,0.68584 -1.4241,0.13859 -2.6949,0.54889 -3.2036,1.03436 l -0.8431,0.80463 -0.9933,-0.98625 c -0.7634,-0.75792 -1.6685,-1.03915 -3.909,-1.21459 -3.1371,-0.24564 -5.4704,0.13039 -5.4704,0.88153 0,0.25644 -0.4928,0.66084 -1.095,0.89866 -0.9388,0.37077 -1.0949,0.25369 -1.0949,-0.82145 0,-1.08403 -0.3934,-1.37203 -2.9053,-2.12655 -1.5979,-0.47998 -3.3821,-0.87267 -3.9649,-0.87267 -1.6194,0 -4.18,1.94965 -4.6226,3.5196 -0.2175,0.77167 -0.8299,1.48238 -1.3608,1.57932 -0.531,0.0969 -3.2673,-0.16276 -6.0809,-0.57709 -5.1747,-0.76205 -6.6137,-0.72124 -6.6137,0.18766 0,0.68342 -4.0905,0.66535 -4.6435,-0.0205 -0.6539,-0.81082 -2.1875,-0.61982 -4.5268,0.56379 -1.7994,0.91047 -5.8045,2.04121 -7.23,2.04121 -0.2136,0 -0.3885,-0.23445 -0.3885,-0.521 0,-0.82957 -2.3604,-0.60422 -4.0155,0.38335 -1.1244,0.67109 -2.3184,0.93287 -4.6284,1.01484 -1.7123,0.0608 -3.5882,0.29815 -4.1691,0.5275 -0.8809,0.34789 -1.0559,0.24678 -1.0559,-0.60961 0,-1.23675 -0.6366,-1.61169 -1.8936,-1.11529 -0.6605,0.26082 -1.3896,0.25213 -2.4966,-0.0299 -0.8599,-0.21899 -2.0137,-0.31597 -2.564,-0.21552 -0.5503,0.10049 -1.9906,-0.0523 -3.2008,-0.33962 -1.6713,-0.39672 -2.5581,-0.43128 -3.6872,-0.14373 -1.0772,0.27433 -1.9046,0.27221 -3.0036,-0.008 -0.8344,-0.21246 -1.9739,-0.30287 -2.5324,-0.20093 -0.5584,0.10198 -1.9288,-0.0413 -3.0452,-0.31844 -3.5036,-0.86961 -5.0125,-0.64826 -7.4905,1.09886 -1.7623,1.24255 -2.1748,1.83333 -1.8186,2.605 0.5001,1.08344 -0.3874,1.31286 -1.8452,0.47703 -0.4998,-0.28655 -1.3715,-0.521 -1.9371,-0.521 -0.5656,0 -1.2176,-0.23445 -1.4487,-0.521 -0.6471,-0.80248 -2.3384,-0.62172 -4.5023,0.48116 -2.8749,1.46533 -4.5378,1.5894 -6.9627,0.51948 l -2.0515,-0.90519 -2.1331,0.97243 c -1.9164,0.87365 -2.1331,1.19517 -2.1331,3.16511 0,1.23022 -0.3204,2.19268 -0.7299,2.19268 -0.4016,0 -0.7299,-0.22201 -0.7299,-0.49339 0,-0.79681 -4.0034,-1.02932 -6.1575,-0.35768 -1.0297,0.32101 -1.872,0.73888 -1.872,0.92867 0,0.19461 -0.7957,0.25001 -1.8248,0.12712 -1.4547,-0.17374 -1.825,-0.0874 -1.825,0.42545 0,0.95409 -0.5145,1.05568 -3.6497,0.72051 -1.6932,-0.18103 -3.5727,-0.17336 -4.6356,0.0187 -1.5093,0.27308 -1.8678,0.20514 -2.3032,-0.43625 -0.4965,-0.73173 -0.5291,-0.73412 -0.8875,-0.065 -0.2046,0.38207 -0.7235,0.79998 -1.1531,0.9287 -0.5518,0.16533 -0.5447,0.3695 0.024,0.69564 0.5922,0.33952 0.5585,0.62215 -0.1274,1.06847 -1.1403,0.74208 -2.1779,0.79918 -1.6046,0.0884 0.4124,-0.51138 -1.3445,-1.51417 -4.3238,-2.46787 -1.2243,-0.39193 -1.8656,-0.4019 -3.419,-0.053 -2.6025,0.58442 -5.6582,2.91989 -5.6582,4.32461 0,0.74809 -0.3532,1.14613 -1.0169,1.14613 -1.0516,0 -1.903,0.71968 -1.903,1.60864 0,0.28037 -1.1496,1.07309 -2.5547,1.76154 -1.4052,0.68849 -2.5549,1.40233 -2.5549,1.58631 0,0.18401 -0.6569,0.25282 -1.4599,0.15293 -1.0708,-0.13327 -1.4599,-0.0108 -1.4599,0.45997 0,0.35293 -0.3272,0.73788 -0.7271,0.85548 -0.4,0.11761 -0.6463,0.71298 -0.5474,1.323 0.1698,1.04894 0.031,1.11504 -2.5577,1.21698 -2.6009,0.10243 -2.7373,0.0562 -2.7373,-0.92623 0,-0.56872 -0.4106,-1.09976 -0.9124,-1.1801 -1.4398,-0.23052 -3.4673,0.12605 -3.4673,0.60974 0,0.2423 -0.8434,0.70349 -1.8741,1.02485 -2.0514,0.63961 -1.2881,0.81741 -8.7222,-2.03187 -1.4614,-0.56011 -2.0311,-0.5978 -3.7919,-0.25074 -1.1397,0.22462 -2.3923,0.75569 -2.7838,1.18014 -0.3914,0.42447 -2.047,1.09285 -3.6791,1.48533 -1.632,0.39249 -2.8365,0.90046 -2.6764,1.12884 0.1599,0.22837 -0.065,0.41523 -0.5,0.41523 -0.4349,0 -0.7907,0.23445 -0.7907,0.521 0,0.28655 -0.3456,0.521 -0.7679,0.521 -0.4224,0 -1.0957,0.44737 -1.4963,0.99414 -0.9215,1.25787 -3.7247,1.95281 -4.7519,1.17802 -0.599,-0.45188 -0.914,-0.38575 -2.033,0.42694 -1.0864,0.78893 -1.1465,1.01519 -0.3348,1.25995 1.1229,0.33855 1.1114,0.34084 -2.1128,0.42253 -1.821,0.0461 -2.3724,-0.0812 -2.3724,-0.54774 0,-0.33431 -0.44,-0.60783 -0.9776,-0.60783 -0.5378,0 -1.352,-0.39076 -1.8093,-0.86834 -0.4573,-0.47758 -1.167,-0.86833 -1.5772,-0.86833 -0.41,0 -0.7455,-0.24689 -0.7455,-0.54862 0,-0.42041 -0.4785,-0.49856 -2.0482,-0.33451 -1.5044,0.15724 -2.7731,-0.0198 -4.7772,-0.66706 -3.2308,-1.04328 -3.2629,-1.04523 -4.9904,-0.30131 -1.2615,0.54327 -1.4134,0.53778 -2.4066,-0.0868 -0.8468,-0.5326 -1.0648,-0.55841 -1.0833,-0.12831 -0.013,0.29611 0.334,0.70829 0.7704,0.91596 0.5714,0.27192 0.5714,0.44292 0,0.61096 -0.4364,0.12837 -0.7936,0.45056 -0.7936,0.71599 0,0.26543 -0.8212,0.90425 -1.8248,1.41955 -1.0037,0.51534 -1.8249,1.21897 -1.8249,1.56363 0,0.34469 -0.4561,0.7517 -1.0135,0.90445 -0.5576,0.15276 -1.1352,0.59037 -1.2837,0.97243 -0.178,0.45775 -0.9527,0.73215 -2.2713,0.80457 -1.6742,0.092 -2.001,0.27633 -2.001,1.12883 0,1.27273 -0.9941,1.29135 -3.4076,0.0638 -1.0329,-0.52534 -2.249,-0.90286 -2.7024,-0.83895 -0.4536,0.0639 -2.0301,0.18555 -3.5034,0.27026 l -2.6788,0.15404 0.2326,-1.48429 c 0.3017,-1.92492 -1.3199,-3.48028 -3.4744,-3.3326 -1.2248,0.084 -1.6073,0.36599 -1.699,1.25263 -0.066,0.62937 -0.6187,1.41087 -1.2304,1.73666 -0.6117,0.32584 -1.2243,0.98317 -1.3611,1.46075 -0.2028,0.70644 -0.8275,0.92933 -3.3515,1.19556 -2.205,0.23257 -3.1022,0.50287 -3.1022,0.93464 0,0.33413 -0.3284,0.70408 -0.73,0.82213 -0.4014,0.11806 -0.7299,0.51444 -0.7299,0.88084 0,0.36637 -0.9033,0.93485 -2.0073,1.26325 -1.1041,0.32841 -4.235,0.7193 -5.0718,1.19025 -0.8707,0.48991 -4.2399,0.8692 -4.2399,0.8692 l 0,-148.3718 1185.49273,0 1195.44669,0 z m -444.4253,66.76815 c -0.7204,0.55466 1.3974,1.42015 2.8335,1.15794 1.2461,-0.22753 1.6189,-0.88785 0.7379,-1.30705 -0.7665,-0.3647 -3.0266,-0.27033 -3.5714,0.14911 z m -1199.626595,11.255 c 0,0.28943 0.64884,0.521 1.4599,0.521 1.4542,0 1.89866,-0.37009 0.97323,-0.81044 -0.889,-0.42305 -2.43313,-0.23934 -2.43313,0.28944 z m -94.48963,4.024 c 0.235,0.18096 0.7384,0.2375 1.1187,0.12566 0.3803,-0.11184 0.4991,-0.35136 0.2641,-0.53232 -0.2351,-0.18096 -0.7384,-0.23751 -1.1187,-0.12567 -0.3803,0.11184 -0.4992,0.35136 -0.2641,0.53233 z m 934.194085,-9.92867 c 0.25337,0.31416 0.007,0.521 -0.62892,0.521 -0.63265,0 -0.88229,-0.20684 -0.62892,-0.521 0.2311,-0.28655 0.5141,-0.521 0.62892,-0.521 0.11482,0 0.39782,0.23445 0.62892,0.521 z m -639.69865,9.74562 c 0,0.0709 -0.65696,0.29624 -1.4599,0.50072 -0.80652,0.20537 -1.4599,0.22899 -1.4599,0.0527 0,-0.17547 0.65696,-0.40079 1.4599,-0.50068 0.80294,-0.0999 1.4599,-0.12365 1.4599,-0.0528 z m -509.81033,8.34167 c 0.2795,0.7089 0.171,1.39318 -0.2531,1.59495 -0.5034,0.23956 -0.8284,-0.16022 -1.0091,-1.24161 -0.3154,-1.88675 0.561,-2.13207 1.2622,-0.35334 z m -188.75,1.51656 c 0,0.17974 -0.3284,0.42343 -0.73,0.54149 -0.4014,0.11806 -0.7299,-0.0288 -0.7299,-0.32684 0,-0.2978 0.3285,-0.54149 0.7299,-0.54149 0.4016,0 0.73,0.14706 0.73,0.32684 z"
       id="path4147"
       inkscape:connector-curvature="0"
       sodipodi:nodetypes="ccscscccccscccscscccssccsccsccccccscsscccccsccccssccccssscsssccccccssscsccssscssssccssscsccccssscccscccssscccccsscsssssscccscssscccccssscsccscsssccsccssssccscccscsccssccccccsscssssscscscssccccscssscccscscscsscsccccccccccccssccscccccccssscssscscccccscscsssssccssscccssccsccccccsssscscccscssscscscccccscsscsssssscsscccscssssssssccccscsscsssscssccscssccscsssssccccsccsccssccsccssscscssscccscsscccssccscssccccscssccssscsssscsccsssssscccscsccscccsssssccccssssccccscssccccssscsccccssscssccsscscssccccccsccsccsccscccccsccssscsccccscccccscssscsccccscsccccccccccccccscccssscscsssscccccccsscscsssssccsssscssccscccccccscsscsssssscsccccccscscssscscsccsscsssscccsssscscccscsscccccscscssscsscscsccsccssssccccccccscsscsssssssssssscscssssssssss" />
  </g>
</svg>
